<?xml version="1.0" encoding="UTF-8" standalone="no"?>
<svg width="44px" height="60px" viewBox="0 0 44 60" version="1.1" xmlns="http://www.w3.org/2000/svg" xmlns:xlink="http://www.w3.org/1999/xlink" xmlns:sketch="http://www.bohemiancoding.com/sketch/ns">
    <!-- Generator: Sketch 3.4 (15575) - http://www.bohemiancoding.com/sketch -->
    <title>gesture-rockon</title>
    <desc>Created with Sketch.</desc>
    <defs></defs>
    <g id="Gestures" stroke="none" stroke-width="1" fill="none" fill-rule="evenodd" sketch:type="MSPage">
        <g id="Icon-1" sketch:type="MSArtboardGroup" transform="translate(-8.000000, 0.000000)" fill="#000000">
            <path d="M51.8993825,14.244 C51.8653825,14.394 48.9703825,27.259 48.0093825,33.162 C47.7153825,34.968 47.5093825,37.219 47.2703825,39.825 C46.7333825,45.681 46.0643825,52.968 43.9483825,59.316 C43.8123825,59.725 43.4303825,60 42.9993825,60 L18.9993825,60 C18.5233825,60 18.1123825,59.664 18.0193825,59.196 C17.0673825,54.436 14.5273825,48.493 10.4693825,41.534 C10.0493825,40.813 9.62838252,40.107 9.20938252,39.421 C7.73638252,37.007 7.59638252,33.875 8.85838252,31.626 C9.80938252,29.933 11.4023825,29 13.3433825,29 C13.8953825,29 14.3433825,29.448 14.3433825,30 C14.3433825,30.552 13.8953825,31 13.3433825,31 C11.8233825,31 11.0133825,31.873 10.6023825,32.606 C9.69738252,34.218 9.82638252,36.592 10.9153825,38.379 C11.3413825,39.076 11.7703825,39.793 12.1973825,40.526 C16.1453825,47.297 18.7023825,53.169 19.8073825,58 L42.2723825,58 C44.1423825,52.027 44.7703825,45.182 45.2783825,39.642 C45.5213825,36.999 45.7303825,34.716 46.0363825,32.84 C47.0063825,26.878 49.9143825,13.955 49.9433825,13.825 C50.2623825,12.255 49.7013825,12.091 49.2513825,11.96 C48.6103825,11.772 48.0673825,12.111 46.8523825,14.459 L41.0753825,27.733 C40.8943825,28.149 40.4553825,28.39 40.0073825,28.322 C39.5593825,28.253 39.2133825,27.892 39.1643825,27.441 C39.0533825,26.418 38.1213825,25 36.6583825,25 C34.8553825,25 34.0333825,26.555 34.0333825,28 C34.0333825,28.552 33.5853825,29 33.0333825,29 C32.4813825,29 32.0333825,28.552 32.0333825,28 C32.0333825,25.944 30.5753825,24 29.0333825,24 C27.3793825,24 26.0333825,25.346 26.0333825,27 C26.0333825,27.366 25.9983825,28.052 25.9983825,28.052 C25.9713825,28.568 25.5573825,28.978 25.0413825,29 C24.5383825,29.019 24.0783825,28.647 24.0083825,28.135 L21.0083825,5.135 C20.6643825,2 19.0823825,2 18.5623825,2 C16.7923825,2 15.9993825,3.507 15.9993825,5 L17.9963825,32.926 C18.0373825,33.477 17.6243825,33.957 17.0733825,33.997 C16.5263825,34.038 16.0423825,33.625 16.0023825,33.074 L14.0023825,5.074 C13.9993825,2.103 15.9183825,0 18.5623825,0 C20.0173825,0 22.5273825,0.635 22.9933825,4.891 L25.4033825,23.565 C26.3163825,22.602 27.6063825,22 29.0333825,22 C30.6843825,22 32.2103825,23.077 33.1313825,24.658 C33.9593825,23.623 35.2003825,23 36.6583825,23 C38.1553825,23 39.3773825,23.754 40.1713825,24.8 L45.0473825,13.601 C45.9503825,11.852 47.2733825,9.299 49.8103825,10.04 C51.0773825,10.41 52.4683825,11.438 51.8993825,14.244" id="gesture-rockon" sketch:type="MSShapeGroup"></path>
        </g>
    </g>
</svg>