<?xml version="1.0" encoding="UTF-8" standalone="no"?>
<svg width="40px" height="60px" viewBox="0 0 40 60" version="1.1" xmlns="http://www.w3.org/2000/svg" xmlns:xlink="http://www.w3.org/1999/xlink" xmlns:sketch="http://www.bohemiancoding.com/sketch/ns">
    <!-- Generator: Sketch 3.4 (15575) - http://www.bohemiancoding.com/sketch -->
    <title>gesture-point</title>
    <desc>Created with Sketch.</desc>
    <defs></defs>
    <g id="Gestures" stroke="none" stroke-width="1" fill="none" fill-rule="evenodd" sketch:type="MSPage">
        <g id="Icon-2" sketch:type="MSArtboardGroup" transform="translate(-10.000000, 0.000000)" fill="#000000">
            <path d="M49.9993825,30 L49.9993825,43 C49.9993825,47.745 48.9493825,50.226 47.9343825,52.626 C47.1813825,54.405 46.4033825,56.244 45.9893825,59.142 C45.9183825,59.634 45.4973825,60 44.9993825,60 L20.9993825,60 C20.5223825,60 20.1123825,59.664 20.0193825,59.196 C19.0673825,54.436 16.5273825,48.494 12.4703825,41.533 C12.0493825,40.813 11.6273825,40.107 11.2093825,39.42 C9.73638252,37.007 9.59638252,33.875 10.8583825,31.627 C11.8093825,29.933 13.4023825,29 15.3433825,29 C15.8953825,29 16.3433825,29.448 16.3433825,30 C16.3433825,30.552 15.8953825,31 15.3433825,31 C13.8233825,31 13.0133825,31.873 12.6023825,32.606 C11.6973825,34.218 11.8263825,36.592 12.9163825,38.378 C13.3413825,39.076 13.7703825,39.793 14.1973825,40.526 C18.1453825,47.297 20.7023825,53.17 21.8073825,58 L44.1463825,58 C44.6153825,55.336 45.3653825,53.565 46.0923825,51.847 C47.0733825,49.529 47.9993825,47.339 47.9993825,43 L47.9993825,30 C47.9993825,28.991 47.0083825,28 45.9993825,28 C44.9523825,28 43.9993825,28.953 43.9993825,30 C43.9993825,30.552 43.5513825,31 42.9993825,31 C42.4473825,31 41.9993825,30.552 41.9993825,30 L41.9993825,27 C41.9993825,25.346 40.6533825,24 38.9993825,24 C37.3453825,24 35.9993825,25.346 35.9993825,27 C35.9993825,27.552 35.5513825,28 34.9993825,28 C34.4473825,28 33.9993825,27.552 33.9993825,27 L33.9993825,25 C33.9993825,23.346 32.6533825,22 30.9993825,22 C29.3453825,22 27.9993825,23.346 27.9993825,25 C27.9993825,25.533 27.5813825,25.972 27.0493825,25.999 C26.5053825,26.043 26.0573825,25.63 26.0043825,25.1 L24.0043825,5.1 C23.6643825,2 22.0823825,2 21.5623825,2 C19.7913825,2 18.9993825,3.507 18.9993825,5 L19.9993825,32.964 C20.0183825,33.516 19.5863825,33.979 19.0353825,34 C18.4663825,34.016 18.0193825,33.587 18.0003825,33.036 L17.0003825,5.036 C16.9993825,2.103 18.9183825,0 21.5623825,0 C23.0173825,0 25.5273825,0.635 25.9933825,4.891 L27.6343825,21.305 C28.5233825,20.495 29.7053825,20 30.9993825,20 C33.1443825,20 34.9783825,21.357 35.6863825,23.258 C36.5693825,22.476 37.7303825,22 38.9993825,22 C41.6103825,22 43.7603825,24.011 43.9803825,26.566 C44.5773825,26.208 45.2693825,26 45.9993825,26 C48.0923825,26 49.9993825,27.907 49.9993825,30" id="gesture-point" sketch:type="MSShapeGroup"></path>
        </g>
    </g>
</svg>