<?xml version="1.0" encoding="UTF-8" standalone="no"?>
<svg width="60px" height="60px" viewBox="0 0 60 60" version="1.1" xmlns="http://www.w3.org/2000/svg" xmlns:xlink="http://www.w3.org/1999/xlink" xmlns:sketch="http://www.bohemiancoding.com/sketch/ns">
    <!-- Generator: Sketch 3.4 (15575) - http://www.bohemiancoding.com/sketch -->
    <title>robot</title>
    <desc>Created with Sketch.</desc>
    <defs></defs>
    <g id="Computing" stroke="none" stroke-width="1" fill="none" fill-rule="evenodd" sketch:type="MSPage">
        <g id="Icon-20" sketch:type="MSArtboardGroup" fill="#000000">
            <path d="M52.002,35 L52.002,43 C52.002,45.757 49.759,48 47.002,48 L13.002,48 C10.245,48 8.002,45.757 8.002,43 L8.002,35 C8.002,34.448 8.449,34 9.002,34 C9.555,34 10.002,34.448 10.002,35 L10.002,43 C10.002,44.654 11.348,46 13.002,46 L47.002,46 C48.656,46 50.002,44.654 50.002,43 L50.002,35 C50.002,34.448 50.449,34 51.002,34 C51.555,34 52.002,34.448 52.002,35 L52.002,35 Z M60.002,31 C60.002,32.654 58.656,34 57.002,34 C55.7,34 54.601,33.162 54.187,32 L51.002,32 C50.449,32 50.002,31.552 50.002,31 L50.002,21 C50.002,19.346 48.656,18 47.002,18 L25.002,18 C24.449,18 24.002,17.552 24.002,17 C24.002,16.448 24.449,16 25.002,16 L47.002,16 C49.759,16 52.002,18.243 52.002,21 L52.002,30 L54.187,30 C54.601,28.838 55.7,28 57.002,28 C58.656,28 60.002,29.346 60.002,31 L60.002,31 Z M58.002,31 C58.002,30.449 57.554,30 57.002,30 C56.45,30 56.002,30.449 56.002,31 C56.002,31.551 56.45,32 57.002,32 C57.554,32 58.002,31.551 58.002,31 L58.002,31 Z M19.002,30 C17.348,30 16.002,28.654 16.002,27 C16.002,25.346 17.348,24 19.002,24 C20.656,24 22.002,25.346 22.002,27 C22.002,28.654 20.656,30 19.002,30 L19.002,30 Z M20.002,27 C20.002,26.449 19.554,26 19.002,26 C18.45,26 18.002,26.449 18.002,27 C18.002,27.551 18.45,28 19.002,28 C19.554,28 20.002,27.551 20.002,27 L20.002,27 Z M41.002,30 C39.348,30 38.002,28.654 38.002,27 C38.002,25.346 39.348,24 41.002,24 C42.656,24 44.002,25.346 44.002,27 C44.002,28.654 42.656,30 41.002,30 L41.002,30 Z M41.002,28 C41.554,28 42.002,27.551 42.002,27 C42.002,26.449 41.554,26 41.002,26 C40.45,26 40.002,26.449 40.002,27 C40.002,27.551 40.45,28 41.002,28 L41.002,28 Z M39.002,50 L21.002,50 C20.449,50 20.002,50.448 20.002,51 C20.002,51.552 20.449,52 21.002,52 L39.002,52 C39.555,52 40.002,51.552 40.002,51 C40.002,50.448 39.555,50 39.002,50 L39.002,50 Z M37.002,54 L23.002,54 C22.449,54 22.002,54.448 22.002,55 C22.002,55.552 22.449,56 23.002,56 L37.002,56 C37.555,56 38.002,55.552 38.002,55 C38.002,54.448 37.555,54 37.002,54 L37.002,54 Z M37.002,58 L23.002,58 C22.449,58 22.002,58.448 22.002,59 C22.002,59.552 22.449,60 23.002,60 L37.002,60 C37.555,60 38.002,59.552 38.002,59 C38.002,58.448 37.555,58 37.002,58 L37.002,58 Z M39.002,36 C39.555,36 40.002,36.448 40.002,37 L40.002,41 C40.002,41.552 39.555,42 39.002,42 L21.002,42 C20.449,42 20.002,41.552 20.002,41 L20.002,37 C20.002,36.448 20.449,36 21.002,36 L39.002,36 L39.002,36 Z M28.002,40 L32.002,40 L32.002,38 L28.002,38 L28.002,40 Z M22.002,40 L26.002,40 L26.002,38 L22.002,38 L22.002,40 Z M34.002,40 L38.002,40 L38.002,38 L34.002,38 L34.002,40 Z M5.816,32 C5.401,33.162 4.302,34 3,34 C1.346,34 0,32.654 0,31 C0,29.346 1.346,28 3,28 C4.302,28 5.401,28.838 5.816,30 L8,30 L8.002,21 C8.002,18.243 10.245,16 13.002,16 L20.069,16 C20.649,11.707 24.881,8.518 29.002,8.062 L29.002,5.815 C27.841,5.401 27.002,4.302 27.002,3 C27.002,1.346 28.348,0 30.002,0 C31.656,0 33.002,1.346 33.002,3 C33.002,4.302 32.163,5.401 31.002,5.816 L31.002,8.065 C33.94,8.376 36.803,10.012 38.497,12.428 C38.815,12.88 38.705,13.503 38.253,13.821 C37.8,14.138 37.177,14.027 36.86,13.576 C35.359,11.437 32.604,10 30.002,10 C26.303,10 22.002,13.058 22.002,17 C22.002,17.552 21.555,18 21.002,18 L13.002,18 C11.348,18 10.002,19.346 10.002,21 L10.002,31 C10.002,31.552 9.555,32 9.002,32 L5.816,32 L5.816,32 Z M29.002,3 C29.002,3.551 29.45,4 30.002,4 C30.554,4 31.002,3.551 31.002,3 C31.002,2.449 30.554,2 30.002,2 C29.45,2 29.002,2.449 29.002,3 L29.002,3 Z M4,31 C4,30.449 3.552,30 3,30 C2.448,30 2,30.449 2,31 C2,31.551 2.448,32 3,32 C3.552,32 4,31.551 4,31 L4,31 Z" id="robot" sketch:type="MSShapeGroup"></path>
        </g>
    </g>
</svg>